<?xml version="1.0" encoding="UTF-8"?>
<svg xmlns="http://www.w3.org/2000/svg" xmlns:xlink="http://www.w3.org/1999/xlink" viewBox="0 0 15 15" width="15px" height="15px">
<g id="surface67033976">
<path style=" stroke:none;fill-rule:nonzero;fill:rgb(100%,100%,100%);fill-opacity:1;" d="M 7.839844 7.59375 C 7.839844 8.253906 8.375 8.789062 9.035156 8.789062 L 11.242188 8.789062 C 10.863281 10.019531 9.929688 10.953125 8.582031 11.203125 C 6.4375 11.601562 4.292969 10.039062 4.085938 7.867188 C 3.875 5.621094 5.636719 3.730469 7.839844 3.730469 C 8.46875 3.730469 9.058594 3.882812 9.578125 4.152344 C 10.050781 4.402344 10.628906 4.300781 11.003906 3.921875 C 11.601562 3.328125 11.441406 2.320312 10.695312 1.9375 C 9.644531 1.398438 8.425781 1.148438 7.136719 1.289062 C 4.273438 1.601562 1.941406 3.929688 1.628906 6.792969 C 1.214844 10.5625 4.15625 13.75 7.839844 13.75 C 11.820312 13.75 13.449219 10.929688 13.777344 8.5 C 13.929688 7.390625 13.039062 6.40625 11.917969 6.40625 L 9.035156 6.402344 C 8.375 6.398438 7.839844 6.933594 7.839844 7.59375 Z M 7.839844 7.59375 "/>
</g>
</svg>
