<?xml version="1.0" encoding="UTF-8"?>
<svg xmlns="http://www.w3.org/2000/svg" xmlns:xlink="http://www.w3.org/1999/xlink" viewBox="0 0 15 15" width="15px" height="15px">
<g id="surface67049035">
<path style=" stroke:none;fill-rule:nonzero;fill:rgb(100%,100%,100%);fill-opacity:1;" d="M 14.515625 3.617188 C 14.023438 3.835938 13.496094 3.980469 12.9375 4.050781 C 13.503906 3.714844 13.941406 3.175781 14.144531 2.542969 C 13.613281 2.851562 13.027344 3.082031 12.398438 3.203125 C 11.902344 2.671875 11.1875 2.34375 10.398438 2.34375 C 8.882812 2.34375 7.652344 3.5625 7.652344 5.066406 C 7.652344 5.277344 7.675781 5.484375 7.722656 5.6875 C 5.441406 5.570312 3.417969 4.488281 2.0625 2.839844 C 1.828125 3.242188 1.691406 3.714844 1.691406 4.210938 C 1.691406 5.15625 2.175781 5.988281 2.914062 6.476562 C 2.464844 6.464844 2.039062 6.339844 1.667969 6.136719 C 1.667969 6.144531 1.667969 6.15625 1.667969 6.167969 C 1.667969 7.488281 2.617188 8.589844 3.871094 8.839844 C 3.640625 8.902344 3.398438 8.9375 3.148438 8.9375 C 2.972656 8.9375 2.800781 8.917969 2.632812 8.886719 C 2.980469 9.964844 3.996094 10.753906 5.195312 10.777344 C 4.257812 11.507812 3.074219 11.941406 1.785156 11.941406 C 1.5625 11.941406 1.347656 11.929688 1.128906 11.902344 C 2.347656 12.671875 3.789062 13.125 5.339844 13.125 C 10.390625 13.125 13.152344 8.976562 13.152344 5.378906 C 13.152344 5.261719 13.148438 5.144531 13.144531 5.027344 C 13.683594 4.648438 14.148438 4.167969 14.515625 3.617188 "/>
</g>
</svg>
